<svg xmlns="http://www.w3.org/2000/svg" width="396" height="544" viewBox="0 0 396 544">
  <defs>
    <style>
      .cls-1 {
        fill: #29b757;
        fill-rule: evenodd;
      }
    </style>
  </defs>
  <path id="Rechteck_1" data-name="Rechteck 1" class="cls-1" d="M1,75c3.534-3.769,48.227-17.214,90-34,46.882-18.839,91.416-41,96-41,4.942,0,49.932,21.02,98,38,52.193,18.437,107.657,33.1,110,37,0.808,1.346-2.179,15.4-8.747,37.077-0.283.935-19.548,6.24-40.253,10.923-24.922,5.637-52.033,10.8-52,12s25.558,0.206,49-3c20.584-2.815,39.488-7.9,39.139-6.826C370.957,159.607,352.712,207.325,328,254q-3.165,5.978-6.443,11.937c-0.083.151-17.178,4.925-29.557,6.063-15.651,1.439-35.044,2.851-35,4,0.092,2.434,20.293,1.3,37,0,5.968-.464,23.854-3.393,23.182-2.2-40.587,71.77-92.916,141.255-122.76,165.17C191.1,441.627,200.109,317.017,201,201c0.761-99.029-9.643-192-11-192-0.94,0,1.364,94.472,0,195-1.6,117.624-12.6,241.017-13,244-0.564,4.2-3.667,70.333-5,77-0.584,2.92-4.088,4.37-7,8-3.736,4.656-7.063,11.124-8,10-1.667-2,1.083-105.622-3-110-13.006-13.944-29.433-35.5-46.033-61.037C107.166,370.731,125,376,130,377c5.154,1.031,25.559,2.354,26,1,0.564-1.73-15.464-4.686-29-9-13.336-4.251-27.175-9.865-27.858-10.973A648.011,648.011,0,0,1,56,276c-7.662-17.782-14.534-35.9-20.612-53.619C35.012,221.285,57.667,227.667,68,229s32.859,3.116,33,2c0.163-1.292-14.9-4.682-31-9-18.492-4.959-38.391-10.885-38.728-11.916C8.2,139.414-1.922,78.117,1,75Z"/>
</svg>
